<svg xmlns="http://www.w3.org/2000/svg" xmlns:xlink="http://www.w3.org/1999/xlink" viewBox="0 0 1366.53 717.76"><defs><style>.cls-1{fill:url(#linear-gradient);}.cls-2{fill:url(#linear-gradient-2);}.cls-3{fill:url(#linear-gradient-3);}</style><linearGradient id="linear-gradient" x1="166.17" y1="875.71" x2="1112.94" y2="-71.06" gradientUnits="userSpaceOnUse"><stop offset="0" stop-color="#00ffa6"/><stop offset="0.99" stop-color="#0060d4"/></linearGradient><linearGradient id="linear-gradient-2" x1="-51.04" y1="566.96" x2="105.89" y2="410.04" gradientUnits="userSpaceOnUse"><stop offset="0" stop-color="#e98800" stop-opacity="0"/><stop offset="0.99" stop-color="#fb94ff"/></linearGradient><linearGradient id="linear-gradient-3" x1="1308.53" y1="295.5" x2="1424.53" y2="179.5" gradientUnits="userSpaceOnUse"><stop offset="0" stop-color="#00ffa6"/><stop offset="0.99" stop-color="#ab60d4" stop-opacity="0.5"/></linearGradient></defs><title>Layer 1</title><g id="Layer_2" data-name="Layer 2"><g id="Layer_1-2" data-name="Layer 1"><path class="cls-1" d="M127.67,694c48.48,0,93.93,6.19,133.08,17,39.15-10.8,84.6-17,133.08-17,43.35,0,84.28,5,120.44,13.72C556.14,694.62,606.2,687,660,687c44.79,0,87,5.29,124,14.61C825.16,689.19,873.9,682,926.17,682s101,7.19,142.13,19.61c37-9.32,79.24-14.61,124-14.61,66.37,0,127.06,11.59,173.67,30.76V182s-86-78-227-67S729,0,729,0H0V709.54C37.9,699.64,81.4,694,127.67,694Z"/><path class="cls-2" d="M.5,358.5a130,130,0,0,1,0,260"/><polyline class="cls-3" points="1366.53 121.5 1299.56 237.5 1366.53 353.5"/></g></g></svg>